<svg width="17" height="17" viewBox="0 0 17 17" fill="none" xmlns="http://www.w3.org/2000/svg">
<g clip-path="url(#clip0_75_1739)">
<path d="M1.41668 12.3958H3.1875C3.9699 12.3958 4.60418 13.03 4.60418 13.8124V15.5833C4.60418 16.3657 3.9699 16.9999 3.1875 16.9999H1.41668C0.634279 16.9999 0 16.3657 0 15.5833V13.8124C0 13.03 0.634279 12.3958 1.41668 12.3958Z" fill="url(#paint0_linear_75_1739)"/>
<path d="M13.8124 12.3958H15.5833C16.3657 12.3958 16.9999 13.03 16.9999 13.8124V15.5833C16.9999 16.3657 16.3657 16.9999 15.5833 16.9999H13.8124C13.03 16.9999 12.3958 16.3657 12.3958 15.5833V13.8124C12.3958 13.03 13.03 12.3958 13.8124 12.3958Z" fill="url(#paint1_linear_75_1739)"/>
<path d="M1.41668 6.198H3.1875C3.9699 6.198 4.60418 6.83228 4.60418 7.61468V9.3855C4.60418 10.1679 3.9699 10.8022 3.1875 10.8022H1.41668C0.634279 10.8021 0 10.1679 0 9.3855V7.61468C0 6.83224 0.634279 6.198 1.41668 6.198Z" fill="url(#paint2_linear_75_1739)"/>
<path d="M13.8124 6.198H15.5833C16.3657 6.198 16.9999 6.83228 16.9999 7.61468V9.3855C16.9999 10.1679 16.3657 10.8022 15.5833 10.8022H13.8124C13.03 10.8022 12.3958 10.1679 12.3958 9.3855V7.61468C12.3958 6.83224 13.03 6.198 13.8124 6.198Z" fill="url(#paint3_linear_75_1739)"/>
<path d="M1.41668 0H3.1875C3.9699 0 4.60418 0.634279 4.60418 1.41668V3.1875C4.60418 3.9699 3.9699 4.60418 3.1875 4.60418H1.41668C0.634279 4.60418 0 3.9699 0 3.1875V1.41668C0 0.634279 0.634279 0 1.41668 0Z" fill="url(#paint4_linear_75_1739)"/>
<path d="M7.61468 12.3958H9.3855C10.1679 12.3958 10.8022 13.03 10.8022 13.8124V15.5833C10.8022 16.3657 10.1679 16.9999 9.3855 16.9999H7.61468C6.83228 16.9999 6.198 16.3657 6.198 15.5833V13.8124C6.19803 13.03 6.83228 12.3958 7.61468 12.3958Z" fill="url(#paint5_linear_75_1739)"/>
<path d="M7.61468 6.198H9.3855C10.1679 6.198 10.8022 6.83228 10.8022 7.61468V9.3855C10.8022 10.1679 10.1679 10.8022 9.3855 10.8022H7.61468C6.83228 10.8022 6.198 10.1679 6.198 9.3855V7.61468C6.19803 6.83224 6.83228 6.198 7.61468 6.198Z" fill="url(#paint6_linear_75_1739)"/>
<path d="M7.61468 0H9.3855C10.1679 0 10.8022 0.634279 10.8022 1.41668V3.1875C10.8022 3.9699 10.1679 4.60418 9.3855 4.60418H7.61468C6.83228 4.60418 6.198 3.9699 6.198 3.1875V1.41668C6.19803 0.634279 6.83228 0 7.61468 0Z" fill="url(#paint7_linear_75_1739)"/>
<path d="M13.8124 0H15.5833C16.3657 0 16.9999 0.634279 16.9999 1.41668V3.1875C16.9999 3.9699 16.3657 4.60418 15.5833 4.60418H13.8124C13.03 4.60418 12.3958 3.9699 12.3958 3.1875V1.41668C12.3958 0.634279 13.03 0 13.8124 0Z" fill="url(#paint8_linear_75_1739)"/>
</g>
<defs>
<linearGradient id="paint0_linear_75_1739" x1="2.30209" y1="12.3958" x2="2.30209" y2="16.9999" gradientUnits="userSpaceOnUse">
<stop stop-color="#71CBFF"/>
<stop offset="1" stop-color="#8705AB"/>
</linearGradient>
<linearGradient id="paint1_linear_75_1739" x1="14.6978" y1="12.3958" x2="14.6978" y2="16.9999" gradientUnits="userSpaceOnUse">
<stop stop-color="#71CBFF"/>
<stop offset="1" stop-color="#8705AB"/>
</linearGradient>
<linearGradient id="paint2_linear_75_1739" x1="2.30209" y1="6.198" x2="2.30209" y2="10.8022" gradientUnits="userSpaceOnUse">
<stop stop-color="#71CBFF"/>
<stop offset="1" stop-color="#8705AB"/>
</linearGradient>
<linearGradient id="paint3_linear_75_1739" x1="14.6978" y1="6.198" x2="14.6978" y2="10.8022" gradientUnits="userSpaceOnUse">
<stop stop-color="#71CBFF"/>
<stop offset="1" stop-color="#8705AB"/>
</linearGradient>
<linearGradient id="paint4_linear_75_1739" x1="2.30209" y1="0" x2="2.30209" y2="4.60418" gradientUnits="userSpaceOnUse">
<stop stop-color="#71CBFF"/>
<stop offset="1" stop-color="#8705AB"/>
</linearGradient>
<linearGradient id="paint5_linear_75_1739" x1="8.50009" y1="12.3958" x2="8.50009" y2="16.9999" gradientUnits="userSpaceOnUse">
<stop stop-color="#71CBFF"/>
<stop offset="1" stop-color="#8705AB"/>
</linearGradient>
<linearGradient id="paint6_linear_75_1739" x1="8.50009" y1="6.198" x2="8.50009" y2="10.8022" gradientUnits="userSpaceOnUse">
<stop stop-color="#71CBFF"/>
<stop offset="1" stop-color="#8705AB"/>
</linearGradient>
<linearGradient id="paint7_linear_75_1739" x1="8.50009" y1="0" x2="8.50009" y2="4.60418" gradientUnits="userSpaceOnUse">
<stop stop-color="#71CBFF"/>
<stop offset="1" stop-color="#8705AB"/>
</linearGradient>
<linearGradient id="paint8_linear_75_1739" x1="14.6978" y1="0" x2="14.6978" y2="4.60418" gradientUnits="userSpaceOnUse">
<stop stop-color="#71CBFF"/>
<stop offset="1" stop-color="#8705AB"/>
</linearGradient>
<clipPath id="clip0_75_1739">
<rect width="17" height="17" fill="white"/>
</clipPath>
</defs>
</svg>
