<svg width="17" height="17" viewBox="0 0 17 17" fill="none" xmlns="http://www.w3.org/2000/svg">
<g clip-path="url(#clip0_75_1730)">
<path d="M8.5 0C6.81886 0 5.17547 0.498516 3.77766 1.43251C2.37984 2.3665 1.29037 3.69402 0.647028 5.24719C0.00368293 6.80036 -0.164645 8.50943 0.163329 10.1583C0.491303 11.8071 1.30085 13.3217 2.4896 14.5104C3.67834 15.6992 5.1929 16.5087 6.84174 16.8367C8.49057 17.1646 10.1996 16.9963 11.7528 16.353C13.306 15.7096 14.6335 14.6202 15.5675 13.2223C16.5015 11.8245 17 10.1811 17 8.5C16.9976 6.24641 16.1013 4.08582 14.5077 2.49228C12.9142 0.898753 10.7536 0.00243743 8.5 0ZM8.5 15.5833C7.09905 15.5833 5.72956 15.1679 4.56471 14.3896C3.39987 13.6112 2.49198 12.505 1.95586 11.2107C1.41974 9.91637 1.27946 8.49214 1.55277 7.11811C1.82609 5.74408 2.50071 4.48195 3.49133 3.49133C4.48195 2.50071 5.74408 1.82608 7.11811 1.55277C8.49215 1.27946 9.91637 1.41973 11.2107 1.95585C12.505 2.49197 13.6113 3.39986 14.3896 4.56471C15.1679 5.72956 15.5833 7.09905 15.5833 8.5C15.5813 10.378 14.8343 12.1785 13.5064 13.5064C12.1785 14.8343 10.378 15.5813 8.5 15.5833Z" fill="url(#paint0_linear_75_1730)"/>
<path d="M9.00796 3.58617C8.59948 3.51175 8.17964 3.52801 7.77814 3.6338C7.37665 3.7396 7.00331 3.93234 6.68455 4.19839C6.36579 4.46444 6.10939 4.7973 5.93351 5.17341C5.75763 5.54951 5.66656 5.95968 5.66675 6.37488C5.66675 6.56274 5.74138 6.74291 5.87421 6.87575C6.00705 7.00859 6.18722 7.08321 6.37508 7.08321C6.56294 7.08321 6.74311 7.00859 6.87595 6.87575C7.00879 6.74291 7.08341 6.56274 7.08341 6.37488C7.08324 6.16647 7.12904 5.96059 7.21757 5.77192C7.30609 5.58325 7.43515 5.41643 7.59555 5.28336C7.75595 5.15029 7.94373 5.05426 8.14551 5.00209C8.34728 4.94993 8.55808 4.94293 8.76287 4.98159C9.04269 5.03591 9.29997 5.1724 9.50184 5.37364C9.70371 5.57488 9.84101 5.83173 9.89621 6.11138C9.95195 6.40492 9.91346 6.70856 9.78624 6.9789C9.65902 7.24925 9.44958 7.47245 9.18787 7.61659C8.75449 7.86767 8.39637 8.23037 8.15082 8.66691C7.90527 9.10344 7.78127 9.59784 7.79175 10.0986V10.6249C7.79175 10.8127 7.86638 10.9929 7.99921 11.1257C8.13205 11.2586 8.31222 11.3332 8.50008 11.3332C8.68794 11.3332 8.86811 11.2586 9.00095 11.1257C9.13379 10.9929 9.20841 10.8127 9.20841 10.6249V10.0986C9.19953 9.8521 9.25573 9.60762 9.37138 9.38976C9.48702 9.1719 9.65802 8.98835 9.86716 8.85759C10.3804 8.57572 10.7936 8.14179 11.0501 7.61546C11.3067 7.08913 11.3938 6.49626 11.2996 5.91838C11.2054 5.3405 10.9345 4.80599 10.5241 4.38836C10.1138 3.97073 9.5841 3.69048 9.00796 3.58617Z" fill="url(#paint1_linear_75_1730)"/>
<path d="M9.20841 12.7501C9.20841 12.3589 8.89128 12.0417 8.50008 12.0417C8.10888 12.0417 7.79175 12.3589 7.79175 12.7501C7.79175 13.1413 8.10888 13.4584 8.50008 13.4584C8.89128 13.4584 9.20841 13.1413 9.20841 12.7501Z" fill="url(#paint2_linear_75_1730)"/>
</g>
<defs>
<linearGradient id="paint0_linear_75_1730" x1="8.5" y1="0" x2="8.5" y2="17" gradientUnits="userSpaceOnUse">
<stop stop-color="#71CBFF"/>
<stop offset="1" stop-color="#8705AB"/>
</linearGradient>
<linearGradient id="paint1_linear_75_1730" x1="8.50163" y1="3.54028" x2="8.50163" y2="11.3332" gradientUnits="userSpaceOnUse">
<stop stop-color="#71CBFF"/>
<stop offset="1" stop-color="#8705AB"/>
</linearGradient>
<linearGradient id="paint2_linear_75_1730" x1="8.50008" y1="12.0417" x2="8.50008" y2="13.4584" gradientUnits="userSpaceOnUse">
<stop stop-color="#71CBFF"/>
<stop offset="1" stop-color="#8705AB"/>
</linearGradient>
<clipPath id="clip0_75_1730">
<rect width="17" height="17" fill="white"/>
</clipPath>
</defs>
</svg>
