<svg width="67" height="67" viewBox="0 0 67 67" fill="none" xmlns="http://www.w3.org/2000/svg">
<circle cx="33.5" cy="33.5" r="29.5" fill="url(#paint0_linear_78_1755)"/>
<circle cx="33.5" cy="33.5" r="32.5" stroke="#A44DFC" stroke-width="2"/>
<g clip-path="url(#clip0_78_1755)">
<path d="M33.5 21C31.0277 21 28.611 21.7331 26.5554 23.1066C24.4998 24.4801 22.8976 26.4324 21.9515 28.7165C21.0054 31.0005 20.7579 33.5139 21.2402 35.9386C21.7225 38.3634 22.913 40.5907 24.6612 42.3388C26.4093 44.087 28.6366 45.2775 31.0614 45.7598C33.4861 46.2421 35.9995 45.9946 38.2835 45.0485C40.5676 44.1024 42.5199 42.5002 43.8934 40.4446C45.2669 38.389 46 35.9723 46 33.5C45.9964 30.1859 44.6783 27.0086 42.3349 24.6651C39.9915 22.3217 36.8141 21.0036 33.5 21ZM33.5 43.9167C31.4398 43.9167 29.4258 43.3057 27.7128 42.1611C25.9998 41.0165 24.6647 39.3897 23.8763 37.4863C23.0878 35.5829 22.8816 33.4884 23.2835 31.4678C23.6854 29.4472 24.6775 27.5911 26.1343 26.1343C27.5911 24.6775 29.4472 23.6854 31.4678 23.2835C33.4885 22.8816 35.5829 23.0878 37.4863 23.8763C39.3897 24.6647 41.0165 25.9998 42.1611 27.7128C43.3057 29.4258 43.9167 31.4398 43.9167 33.5C43.9136 36.2617 42.8152 38.9095 40.8624 40.8623C38.9095 42.8152 36.2617 43.9136 33.5 43.9167Z" fill="#E7E7E7"/>
<path d="M33.5001 31.4167H32.4584C32.1821 31.4167 31.9172 31.5265 31.7218 31.7218C31.5265 31.9172 31.4167 32.1821 31.4167 32.4584C31.4167 32.7347 31.5265 32.9996 31.7218 33.195C31.9172 33.3903 32.1821 33.5001 32.4584 33.5001H33.5001V39.7501C33.5001 40.0263 33.6098 40.2913 33.8052 40.4867C34.0005 40.682 34.2655 40.7917 34.5417 40.7917C34.818 40.7917 35.083 40.682 35.2783 40.4867C35.4737 40.2913 35.5834 40.0263 35.5834 39.7501V33.5001C35.5834 32.9475 35.3639 32.4176 34.9732 32.0269C34.5825 31.6362 34.0526 31.4167 33.5001 31.4167Z" fill="#E7E7E7"/>
<path d="M33.5 29.3333C34.3629 29.3333 35.0625 28.6337 35.0625 27.7708C35.0625 26.9078 34.3629 26.2083 33.5 26.2083C32.6371 26.2083 31.9375 26.9078 31.9375 27.7708C31.9375 28.6337 32.6371 29.3333 33.5 29.3333Z" fill="#E7E7E7"/>
</g>
<defs>
<linearGradient id="paint0_linear_78_1755" x1="33.5" y1="4" x2="33.5" y2="63" gradientUnits="userSpaceOnUse">
<stop stop-color="#AA55FF"/>
<stop offset="1" stop-color="#6E00DC"/>
</linearGradient>
<clipPath id="clip0_78_1755">
<rect width="25" height="25" fill="white" transform="translate(21 21)"/>
</clipPath>
</defs>
</svg>
