<svg width="67" height="67" viewBox="0 0 67 67" fill="none" xmlns="http://www.w3.org/2000/svg">
<circle cx="33.5" cy="33.5" r="29" fill="url(#paint0_linear_78_1756)" stroke="#4DB8F4"/>
<circle cx="33.5" cy="33.5" r="32.5" stroke="#4DB8F4" stroke-width="2"/>
<g clip-path="url(#clip0_78_1756)">
<path d="M33.5 21C31.0277 21 28.611 21.7331 26.5554 23.1066C24.4998 24.4801 22.8976 26.4324 21.9515 28.7165C21.0054 31.0005 20.7579 33.5139 21.2402 35.9386C21.7225 38.3634 22.913 40.5907 24.6612 42.3388C26.4093 44.087 28.6366 45.2775 31.0614 45.7598C33.4861 46.2421 35.9995 45.9946 38.2836 45.0485C40.5676 44.1024 42.5199 42.5002 43.8934 40.4446C45.2669 38.389 46 35.9723 46 33.5C45.9964 30.1859 44.6783 27.0086 42.3349 24.6651C39.9915 22.3217 36.8141 21.0036 33.5 21ZM33.5 43.9167C31.4398 43.9167 29.4258 43.3057 27.7128 42.1611C25.9998 41.0165 24.6647 39.3897 23.8763 37.4863C23.0878 35.5829 22.8816 33.4884 23.2835 31.4678C23.6854 29.4472 24.6775 27.5911 26.1343 26.1343C27.5911 24.6775 29.4472 23.6854 31.4678 23.2835C33.4885 22.8816 35.5829 23.0878 37.4863 23.8763C39.3897 24.6647 41.0166 25.9998 42.1611 27.7128C43.3057 29.4258 43.9167 31.4398 43.9167 33.5C43.9136 36.2617 42.8152 38.9095 40.8624 40.8623C38.9095 42.8152 36.2617 43.9136 33.5 43.9167Z" fill="#E7E7E7"/>
<path d="M34.2468 26.274C33.6461 26.1646 33.0287 26.1885 32.4382 26.3441C31.8478 26.4996 31.2988 26.7831 30.83 27.1743C30.3613 27.5656 29.9842 28.0551 29.7256 28.6082C29.4669 29.1613 29.333 29.7645 29.3333 30.3751C29.3333 30.6513 29.443 30.9163 29.6383 31.1116C29.8337 31.307 30.0987 31.4167 30.3749 31.4167C30.6512 31.4167 30.9161 31.307 31.1115 31.1116C31.3068 30.9163 31.4166 30.6513 31.4166 30.3751C31.4163 30.0686 31.4837 29.7658 31.6139 29.4884C31.7441 29.2109 31.9339 28.9656 32.1697 28.7699C32.4056 28.5742 32.6818 28.433 32.9785 28.3563C33.2752 28.2796 33.5852 28.2693 33.8864 28.3261C34.2979 28.406 34.6762 28.6067 34.9731 28.9027C35.27 29.1986 35.4719 29.5763 35.553 29.9876C35.635 30.4192 35.5784 30.8658 35.3913 31.2633C35.2042 31.6609 34.8962 31.9891 34.5114 32.2011C33.8741 32.5703 33.3474 33.1037 32.9863 33.7457C32.6252 34.3877 32.4428 35.1147 32.4583 35.8511V36.6251C32.4583 36.9013 32.568 37.1663 32.7633 37.3616C32.9587 37.557 33.2237 37.6667 33.4999 37.6667C33.7762 37.6667 34.0411 37.557 34.2365 37.3616C34.4318 37.1663 34.5416 36.9013 34.5416 36.6251V35.8511C34.5285 35.4886 34.6112 35.1291 34.7812 34.8087C34.9513 34.4883 35.2028 34.2184 35.5103 34.0261C36.265 33.6116 36.8728 32.9735 37.25 32.1995C37.6272 31.4254 37.7554 30.5536 37.6169 29.7037C37.4784 28.8539 37.08 28.0679 36.4765 27.4537C35.873 26.8395 35.0941 26.4274 34.2468 26.274Z" fill="#E7E7E7"/>
<path d="M34.5416 39.7499C34.5416 39.1746 34.0752 38.7083 33.4999 38.7083C32.9246 38.7083 32.4583 39.1746 32.4583 39.7499C32.4583 40.3252 32.9246 40.7916 33.4999 40.7916C34.0752 40.7916 34.5416 40.3252 34.5416 39.7499Z" fill="#E7E7E7"/>
</g>
<defs>
<linearGradient id="paint0_linear_78_1756" x1="33.5" y1="4" x2="33.5" y2="63" gradientUnits="userSpaceOnUse">
<stop stop-color="#59C0F9"/>
<stop offset="1" stop-color="#0089D5"/>
</linearGradient>
<clipPath id="clip0_78_1756">
<rect width="25" height="25" fill="white" transform="translate(21 21)"/>
</clipPath>
</defs>
</svg>
