<svg width="67" height="67" viewBox="0 0 67 67" fill="none" xmlns="http://www.w3.org/2000/svg">
<circle cx="33.5" cy="33.5" r="29" fill="url(#paint0_linear_78_1754)" stroke="#CD55EE"/>
<circle cx="33.5" cy="33.5" r="32.5" stroke="#CD55EE" stroke-width="2"/>
<g clip-path="url(#clip0_78_1754)">
<path d="M28.2917 21H25.1667C24.0616 21 23.0018 21.439 22.2204 22.2204C21.439 23.0018 21 24.0616 21 25.1667V28.2917C21 29.3967 21.439 30.4565 22.2204 31.2379C23.0018 32.0193 24.0616 32.4583 25.1667 32.4583H28.2917C29.3967 32.4583 30.4565 32.0193 31.2379 31.2379C32.0193 30.4565 32.4583 29.3967 32.4583 28.2917V25.1667C32.4583 24.0616 32.0193 23.0018 31.2379 22.2204C30.4565 21.439 29.3967 21 28.2917 21ZM30.375 28.2917C30.375 28.8442 30.1555 29.3741 29.7648 29.7648C29.3741 30.1555 28.8442 30.375 28.2917 30.375H25.1667C24.6141 30.375 24.0842 30.1555 23.6935 29.7648C23.3028 29.3741 23.0833 28.8442 23.0833 28.2917V25.1667C23.0833 24.6141 23.3028 24.0842 23.6935 23.6935C24.0842 23.3028 24.6141 23.0833 25.1667 23.0833H28.2917C28.8442 23.0833 29.3741 23.3028 29.7648 23.6935C30.1555 24.0842 30.375 24.6141 30.375 25.1667V28.2917Z" fill="#E7E7E7"/>
<path d="M41.8334 21H38.7084C37.6033 21 36.5435 21.439 35.7621 22.2204C34.9807 23.0018 34.5417 24.0616 34.5417 25.1667V28.2917C34.5417 29.3967 34.9807 30.4565 35.7621 31.2379C36.5435 32.0193 37.6033 32.4583 38.7084 32.4583H41.8334C42.9385 32.4583 43.9983 32.0193 44.7797 31.2379C45.5611 30.4565 46.0001 29.3967 46.0001 28.2917V25.1667C46.0001 24.0616 45.5611 23.0018 44.7797 22.2204C43.9983 21.439 42.9385 21 41.8334 21ZM43.9167 28.2917C43.9167 28.8442 43.6973 29.3741 43.3066 29.7648C42.9159 30.1555 42.3859 30.375 41.8334 30.375H38.7084C38.1559 30.375 37.626 30.1555 37.2353 29.7648C36.8446 29.3741 36.6251 28.8442 36.6251 28.2917V25.1667C36.6251 24.6141 36.8446 24.0842 37.2353 23.6935C37.626 23.3028 38.1559 23.0833 38.7084 23.0833H41.8334C42.3859 23.0833 42.9159 23.3028 43.3066 23.6935C43.6973 24.0842 43.9167 24.6141 43.9167 25.1667V28.2917Z" fill="#E7E7E7"/>
<path d="M28.2917 34.5417H25.1667C24.0616 34.5417 23.0018 34.9807 22.2204 35.7621C21.439 36.5435 21 37.6033 21 38.7084V41.8334C21 42.9385 21.439 43.9983 22.2204 44.7797C23.0018 45.5611 24.0616 46.0001 25.1667 46.0001H28.2917C29.3967 46.0001 30.4565 45.5611 31.2379 44.7797C32.0193 43.9983 32.4583 42.9385 32.4583 41.8334V38.7084C32.4583 37.6033 32.0193 36.5435 31.2379 35.7621C30.4565 34.9807 29.3967 34.5417 28.2917 34.5417ZM30.375 41.8334C30.375 42.3859 30.1555 42.9159 29.7648 43.3066C29.3741 43.6973 28.8442 43.9167 28.2917 43.9167H25.1667C24.6141 43.9167 24.0842 43.6973 23.6935 43.3066C23.3028 42.9159 23.0833 42.3859 23.0833 41.8334V38.7084C23.0833 38.1559 23.3028 37.626 23.6935 37.2353C24.0842 36.8446 24.6141 36.6251 25.1667 36.6251H28.2917C28.8442 36.6251 29.3741 36.8446 29.7648 37.2353C30.1555 37.626 30.375 38.1559 30.375 38.7084V41.8334Z" fill="#E7E7E7"/>
<path d="M41.8334 34.5417H38.7084C37.6033 34.5417 36.5435 34.9807 35.7621 35.7621C34.9807 36.5435 34.5417 37.6033 34.5417 38.7084V41.8334C34.5417 42.9385 34.9807 43.9983 35.7621 44.7797C36.5435 45.5611 37.6033 46.0001 38.7084 46.0001H41.8334C42.9385 46.0001 43.9983 45.5611 44.7797 44.7797C45.5611 43.9983 46.0001 42.9385 46.0001 41.8334V38.7084C46.0001 37.6033 45.5611 36.5435 44.7797 35.7621C43.9983 34.9807 42.9385 34.5417 41.8334 34.5417ZM43.9167 41.8334C43.9167 42.3859 43.6973 42.9159 43.3066 43.3066C42.9159 43.6973 42.3859 43.9167 41.8334 43.9167H38.7084C38.1559 43.9167 37.626 43.6973 37.2353 43.3066C36.8446 42.9159 36.6251 42.3859 36.6251 41.8334V38.7084C36.6251 38.1559 36.8446 37.626 37.2353 37.2353C37.626 36.8446 38.1559 36.6251 38.7084 36.6251H41.8334C42.3859 36.6251 42.9159 36.8446 43.3066 37.2353C43.6973 37.626 43.9167 38.1559 43.9167 38.7084V41.8334Z" fill="#E7E7E7"/>
</g>
<defs>
<linearGradient id="paint0_linear_78_1754" x1="33.5" y1="4" x2="33.5" y2="63" gradientUnits="userSpaceOnUse">
<stop stop-color="#D15DF1"/>
<stop offset="1" stop-color="#A401D0"/>
</linearGradient>
<clipPath id="clip0_78_1754">
<rect width="25" height="25" fill="white" transform="translate(21 21)"/>
</clipPath>
</defs>
</svg>
