<svg width="67" height="67" viewBox="0 0 67 67" fill="none" xmlns="http://www.w3.org/2000/svg">
<circle cx="33.5" cy="33.5" r="29" fill="url(#paint0_linear_78_1752)" stroke="#4DB8F4"/>
<circle cx="33.5" cy="33.5" r="32.5" stroke="#4DB8F4" stroke-width="2"/>
<g clip-path="url(#clip0_78_1752)">
<path d="M40.7917 25.1667H39.6458C39.4041 23.9911 38.7644 22.9347 37.8346 22.1757C36.9049 21.4168 35.7419 21.0015 34.5417 21H32.4583C31.2581 21.0015 30.0951 21.4168 29.1654 22.1757C28.2356 22.9347 27.5959 23.9911 27.3542 25.1667H26.2083C24.8275 25.1683 23.5037 25.7176 22.5273 26.694C21.5509 27.6704 21.0017 28.9942 21 30.375V40.7917C21.0017 42.1725 21.5509 43.4963 22.5273 44.4727C23.5037 45.4491 24.8275 45.9983 26.2083 46H40.7917C42.1725 45.9983 43.4963 45.4491 44.4727 44.4727C45.4491 43.4963 45.9983 42.1725 46 40.7917V30.375C45.9983 28.9942 45.4491 27.6704 44.4727 26.694C43.4963 25.7176 42.1725 25.1683 40.7917 25.1667ZM32.4583 23.0833H34.5417C35.1857 23.086 35.8132 23.2876 36.3382 23.6605C36.8633 24.0334 37.2603 24.5595 37.475 25.1667H29.525C29.7397 24.5595 30.1367 24.0334 30.6618 23.6605C31.1868 23.2876 31.8143 23.086 32.4583 23.0833ZM26.2083 27.25H40.7917C41.6205 27.25 42.4153 27.5792 43.0014 28.1653C43.5874 28.7513 43.9167 29.5462 43.9167 30.375V33.5H23.0833V30.375C23.0833 29.5462 23.4126 28.7513 23.9986 28.1653C24.5847 27.5792 25.3795 27.25 26.2083 27.25ZM40.7917 43.9167H26.2083C25.3795 43.9167 24.5847 43.5874 23.9986 43.0014C23.4126 42.4153 23.0833 41.6205 23.0833 40.7917V35.5833H32.4583V36.625C32.4583 36.9013 32.5681 37.1662 32.7634 37.3616C32.9588 37.5569 33.2237 37.6667 33.5 37.6667C33.7763 37.6667 34.0412 37.5569 34.2366 37.3616C34.4319 37.1662 34.5417 36.9013 34.5417 36.625V35.5833H43.9167V40.7917C43.9167 41.6205 43.5874 42.4153 43.0014 43.0014C42.4153 43.5874 41.6205 43.9167 40.7917 43.9167Z" fill="#E7E7E7"/>
</g>
<defs>
<linearGradient id="paint0_linear_78_1752" x1="33.5" y1="4" x2="33.5" y2="63" gradientUnits="userSpaceOnUse">
<stop stop-color="#59C0F9"/>
<stop offset="1" stop-color="#0089D5"/>
</linearGradient>
<clipPath id="clip0_78_1752">
<rect width="25" height="25" fill="white" transform="translate(21 21)"/>
</clipPath>
</defs>
</svg>
