<svg width="67" height="67" viewBox="0 0 67 67" fill="none" xmlns="http://www.w3.org/2000/svg">
<circle cx="33.5" cy="33.5" r="29" fill="url(#paint0_linear_78_1757)" stroke="#CD55EE"/>
<circle cx="33.5" cy="33.5" r="32.5" stroke="#CD55EE" stroke-width="2"/>
<g clip-path="url(#clip0_78_1757)">
<path d="M44.125 23.2531C43.5394 22.7634 42.8532 22.4087 42.1151 22.2141C41.377 22.0195 40.6051 21.9898 39.8542 22.1271L35.8729 22.85C34.9538 23.0188 34.118 23.4917 33.5 24.1927C32.8804 23.4905 32.0423 23.0175 31.1208 22.85L27.1458 22.1271C26.395 21.9897 25.6231 22.019 24.8848 22.213C24.1465 22.407 23.4599 22.7609 22.8735 23.2496C22.2872 23.7384 21.8154 24.3501 21.4916 25.0413C21.1679 25.7326 21.0001 26.4866 21 27.25V38.4927C21.0001 39.7123 21.4281 40.8932 22.2095 41.8295C22.9909 42.7659 24.0762 43.3983 25.276 43.6166L31.824 44.8073C32.9322 45.0086 34.0678 45.0086 35.176 44.8073L41.7292 43.6166C42.9281 43.3973 44.0121 42.7643 44.7925 41.8281C45.5729 40.8918 46.0002 39.7115 46 38.4927V27.25C46.0005 26.4869 45.8327 25.7331 45.5086 25.0423C45.1845 24.3514 44.7121 23.7405 44.125 23.2531ZM32.4583 42.8C32.3708 42.7875 32.2833 42.7729 32.1958 42.7573L25.649 41.5677C24.9289 41.4367 24.2777 41.0571 23.8088 40.4952C23.34 39.9332 23.0832 39.2245 23.0833 38.4927V27.25C23.0833 26.4212 23.4126 25.6263 23.9986 25.0403C24.5847 24.4542 25.3795 24.125 26.2083 24.125C26.397 24.1254 26.5852 24.1425 26.7708 24.176L30.75 24.9052C31.2288 24.9928 31.6617 25.2453 31.9738 25.6188C32.2859 25.9923 32.4573 26.4633 32.4583 26.95V42.8ZM43.9167 38.4927C43.9168 39.2245 43.66 39.9332 43.1912 40.4952C42.7223 41.0571 42.0711 41.4367 41.351 41.5677L34.8042 42.7573C34.7167 42.7729 34.6292 42.7875 34.5417 42.8V26.95C34.5416 26.4621 34.7128 25.9896 35.0253 25.615C35.3379 25.2404 35.7721 24.9873 36.2521 24.9L40.2323 24.1708C40.683 24.0888 41.1463 24.1069 41.5893 24.2238C42.0323 24.3408 42.4441 24.5537 42.7956 24.8475C43.1472 25.1413 43.4298 25.5088 43.6236 25.924C43.8173 26.3391 43.9174 26.7918 43.9167 27.25V38.4927Z" fill="#E7E7E7"/>
</g>
<defs>
<linearGradient id="paint0_linear_78_1757" x1="33.5" y1="4" x2="33.5" y2="63" gradientUnits="userSpaceOnUse">
<stop stop-color="#D15DF1"/>
<stop offset="1" stop-color="#A401D0"/>
</linearGradient>
<clipPath id="clip0_78_1757">
<rect width="25" height="25" fill="white" transform="translate(21 21)"/>
</clipPath>
</defs>
</svg>
