<svg width="41" height="41" viewBox="0 0 41 41" fill="none" xmlns="http://www.w3.org/2000/svg">
<circle cx="20.5" cy="20.5" r="20.5" fill="white"/>
<path fill-rule="evenodd" clip-rule="evenodd" d="M8.18516 36.8903C9.20657 29.9437 14.3315 26 20.5 26C26.6685 26 31.7934 29.9437 32.8148 36.8903C37.7856 33.1496 41 27.2002 41 20.5C41 9.17816 31.8218 0 20.5 0C9.17816 0 0 9.17816 0 20.5C0 27.2002 3.21437 33.1496 8.18516 36.8903ZM27 16.5C27 20.0899 24.0899 23 20.5 23C16.9101 23 14 20.0899 14 16.5C14 12.9101 16.9101 10 20.5 10C24.0899 10 27 12.9101 27 16.5Z" fill="url(#paint0_linear_93_1778)"/>
<defs>
<linearGradient id="paint0_linear_93_1778" x1="20.5" y1="1.65612e-08" x2="21" y2="42" gradientUnits="userSpaceOnUse">
<stop stop-color="#4DB8F4"/>
<stop offset="1" stop-color="#058CD8"/>
</linearGradient>
</defs>
</svg>
