<svg width="7" height="14" viewBox="0 0 7 14" fill="none" xmlns="http://www.w3.org/2000/svg">
<path d="M0.620057 8.42557e-06C0.701191 -0.00043536 0.781619 0.014277 0.856729 0.0433014C0.93184 0.0723258 1.00016 0.115092 1.05776 0.169147L6.09442 4.93416C6.38148 5.20505 6.60922 5.52685 6.76462 5.88114C6.92001 6.23543 7 6.61523 7 6.99881C7 7.38239 6.92001 7.7622 6.76462 8.11648C6.60923 8.47077 6.38148 8.79257 6.09442 9.06346L1.05776 13.8285C1.00028 13.8829 0.932042 13.926 0.856941 13.9554C0.78184 13.9849 0.701347 14 0.620059 14C0.53877 14 0.458277 13.9849 0.383175 13.9554C0.308074 13.926 0.239836 13.8829 0.182356 13.8285C0.124876 13.7741 0.0792799 13.7095 0.048172 13.6385C0.017064 13.5674 0.00105377 13.4913 0.00105376 13.4144C0.00105375 13.3375 0.017064 13.2613 0.0481719 13.1903C0.0792798 13.1192 0.124876 13.0547 0.182356 13.0003L5.21902 8.23527C5.56536 7.9072 5.7599 7.46248 5.7599 6.99881C5.7599 6.53514 5.56536 6.09043 5.21902 5.76236L0.182355 0.997338C0.124573 0.943119 0.0787093 0.878613 0.0474112 0.807541C0.0161132 0.736468 2.64312e-07 0.660237 2.57581e-07 0.583243C2.5085e-07 0.50625 0.0161132 0.430017 0.0474112 0.358945C0.0787092 0.287872 0.124573 0.223367 0.182355 0.169147C0.239959 0.115092 0.308275 0.0723258 0.383385 0.0433015C0.458496 0.0142771 0.538924 -0.000435346 0.620057 8.42557e-06Z" fill="#878787"/>
</svg>
