<svg width="17" height="17" viewBox="0 0 17 17" fill="none" xmlns="http://www.w3.org/2000/svg">
<g clip-path="url(#clip0_75_1728)">
<path d="M14.8751 16.2917C14.8751 16.6834 14.5577 17 14.1667 17C13.7757 17 13.4584 16.6834 13.4584 16.2917C13.4584 14.7291 12.1877 13.4583 10.6251 13.4583H6.37508C4.8125 13.4583 3.54175 14.7291 3.54175 16.2917C3.54175 16.6834 3.22441 17 2.83341 17C2.44241 17 2.12508 16.6834 2.12508 16.2917C2.12508 13.9478 4.03121 12.0417 6.37508 12.0417H10.6251C12.969 12.0417 14.8751 13.9478 14.8751 16.2917ZM15.5834 5.3125V6.72917C15.5834 7.31496 15.1067 7.79167 14.5209 7.79167H14.1667C14.1667 9.35425 12.896 10.625 11.3334 10.625H5.66675C4.10416 10.625 2.83341 9.35425 2.83341 7.79167H2.47925C1.89346 7.79167 1.41675 7.31496 1.41675 6.72917V5.3125C1.41675 4.72671 1.89346 4.25 2.47925 4.25H2.83341C2.83341 2.68742 4.10416 1.41667 5.66675 1.41667H7.79175V0.708333C7.79175 0.316625 8.10908 0 8.50008 0C8.89108 0 9.20842 0.316625 9.20842 0.708333V1.41667H11.3334C12.896 1.41667 14.1667 2.68742 14.1667 4.25H14.5209C15.1067 4.25 15.5834 4.72671 15.5834 5.3125ZM12.7501 4.25C12.7501 3.46871 12.1147 2.83333 11.3334 2.83333H5.66675C4.88546 2.83333 4.25008 3.46871 4.25008 4.25V7.79167C4.25008 8.57296 4.88546 9.20833 5.66675 9.20833H11.3334C12.1147 9.20833 12.7501 8.57296 12.7501 7.79167V4.25ZM6.72925 4.95833C6.14275 4.95833 5.66675 5.43433 5.66675 6.02083C5.66675 6.60733 6.14275 7.08333 6.72925 7.08333C7.31575 7.08333 7.79175 6.60733 7.79175 6.02083C7.79175 5.43433 7.31575 4.95833 6.72925 4.95833ZM10.2709 4.95833C9.68442 4.95833 9.20842 5.43433 9.20842 6.02083C9.20842 6.60733 9.68442 7.08333 10.2709 7.08333C10.8574 7.08333 11.3334 6.60733 11.3334 6.02083C11.3334 5.43433 10.8574 4.95833 10.2709 4.95833Z" fill="url(#paint0_linear_75_1728)"/>
</g>
<defs>
<linearGradient id="paint0_linear_75_1728" x1="8.50008" y1="0" x2="8.50008" y2="17" gradientUnits="userSpaceOnUse">
<stop stop-color="#59C0F9"/>
<stop offset="1" stop-color="#8705AB"/>
</linearGradient>
<clipPath id="clip0_75_1728">
<rect width="17" height="17" fill="white"/>
</clipPath>
</defs>
</svg>
